# xmcd
#
# Track frame offsets:
#	150
#	18355
#	34702
#	48510
#	63942
#	79302
#	96087
#	112472
#	130637
#	146610
#	162365
#	177230
#	191327
#	205395
#	219122
#
# Disc length: 3111 seconds
#
# Revision: 1
# Processed by: cddbd v1.5.1PL2 Copyright (c) Steve Scherf et al.
# Submitted via: audiograbber 1.83.01
#
DISCID=d10c250f
DTITLE=Music Maestro - MM6260
DYEAR=1900
DGENRE=Karaoke
TTITLE0=Brooks, Garth - It's Your Song
TTITLE1=McGraw, Tim - For A Little While
TTITLE2=McEntire, Reba - Wrong Night
TTITLE3=Cyrus, Billiy Ray - Busy Man
TTITLE4=Wariner, Steve - Every Little Whisper
TTITLE5=Kinleys, The - Somebody's Out There Watching
TTITLE6=Davis, Linda - I'm Yours
TTITLE7=Brock, Chad - Ordinary Life
TTITLE8=Tractors, The - Shortenin' Bread 
TTITLE9=Brown, Shannon - I Won't Lie
TTITLE10=Brokop, Lisa - When You Get To Be You
TTITLE11=Allen, Gary - I'll Take Today
TTITLE12=Alabama - Keepin' Up
TTITLE13=Yearwood, Trisha - Powerful Thing
TTITLE14=Rimes, LeAnn - These Arms Of Mine
EXTD=As Listed In KJ Pro
EXTT0=
EXTT1=
EXTT2=
EXTT3=
EXTT4=
EXTT5=
EXTT6=
EXTT7=
EXTT8=
EXTT9=
EXTT10=
EXTT11=
EXTT12=
EXTT13=
EXTT14=
PLAYORDER=
